<?xml version="1.0" encoding="UTF-8" standalone="no"?>
<svg width="146px" height="64px" viewBox="0 0 146 64" version="1.1" xmlns="http://www.w3.org/2000/svg" xmlns:xlink="http://www.w3.org/1999/xlink" xmlns:sketch="http://www.bohemiancoding.com/sketch/ns">
    <!-- Generator: Sketch 3.3.3 (12072) - http://www.bohemiancoding.com/sketch -->
    <title>index-equality-title</title>
    <desc>Created with Sketch.</desc>
    <defs></defs>
    <g id="Page-1" stroke="none" stroke-width="1" fill="none" fill-rule="evenodd" sketch:type="MSPage">
        <g id="生而平權-+-EQUALITY" sketch:type="MSLayerGroup" fill="#2E2E31">
            <path d="M0,10.241 C2.2866781,7.15398456 3.78932974,4.00984934 4.508,0.8085 L6.174,1.176 C5.86366512,2.41733954 5.47166903,3.62599412 4.998,4.802 L11.1475,4.802 L11.1475,0 L12.9115,0 L12.9115,4.802 L21.3885,4.802 L21.3885,6.566 L12.9115,6.566 L12.9115,11.9805 L20.531,11.9805 L20.531,13.7445 L12.9115,13.7445 L12.9115,19.8205 L22.344,19.8205 L22.344,21.5845 L0.8085,21.5845 L0.8085,19.8205 L11.1475,19.8205 L11.1475,13.7445 L3.4055,13.7445 L3.4055,11.9805 L11.1475,11.9805 L11.1475,6.566 L4.2385,6.566 C3.42182925,8.26467516 2.43367246,9.9306585 1.274,11.564 L0,10.241 Z M28.3301666,1.6415 L50.8211666,1.6415 L50.8211666,3.4055 L39.6001666,3.4055 L38.4486666,7.2765 L49.1551666,7.2765 L49.1551666,20.286 C49.1551666,21.8540078 48.3711744,22.638 46.8031666,22.638 L44.8921666,22.638 L44.5001666,20.874 L46.5336666,20.874 C47.0890027,20.874 47.3666666,20.5963361 47.3666666,20.041 L47.3666666,9.0405 L43.2996666,9.0405 L43.2996666,22.1235 L41.5356666,22.1235 L41.5356666,9.0405 L37.5666666,9.0405 L37.5666666,22.1235 L35.8026666,22.1235 L35.8026666,9.0405 L31.7356666,9.0405 L31.7356666,22.687 L29.9471666,22.687 L29.9471666,7.2765 L36.6846666,7.2765 L37.8116666,3.4055 L28.3301666,3.4055 L28.3301666,1.6415 Z M62.2463332,11.417 C61.3969956,9.7836585 60.3108398,7.97067663 58.9878332,5.978 L60.5313332,5.096 C62.213675,7.69301298 63.3161639,9.52232802 63.8388332,10.584 L62.2463332,11.417 Z M75.6968332,4.9735 L77.3138332,5.733 C76.3338283,7.64400956 75.1496735,9.56315703 73.7613332,11.4905 L72.1688332,10.7065 C73.3611725,9.08949191 74.5371607,7.17851102 75.6968332,4.9735 L75.6968332,4.9735 Z M56.7093332,13.0095 L67.1463332,13.0095 L67.1463332,3.1115 L57.7628332,3.1115 L57.7628332,1.3475 L78.1468332,1.3475 L78.1468332,3.1115 L68.9103332,3.1115 L68.9103332,13.0095 L79.2003332,13.0095 L79.2003332,14.798 L68.9103332,14.798 L68.9103332,22.687 L67.1463332,22.687 L67.1463332,14.798 L56.7093332,14.798 L56.7093332,13.0095 Z M89.8169998,6.37 L89.8169998,22.687 L88.0529998,22.687 L88.0529998,10.7065 C87.4159966,12.8135105 86.5503386,14.7816575 85.4559998,16.611 L84.6474998,14.602 C86.1991742,12.3316553 87.2526637,9.58768275 87.8079998,6.37 L84.9904998,6.37 L84.9904998,4.606 L88.0529998,4.606 L88.0529998,0 L89.8169998,0 L89.8169998,4.606 L91.9729998,4.606 L91.9729998,6.37 L89.8169998,6.37 Z M90.0129998,9.604 L90.8704998,8.5015 C91.6218369,9.43250465 92.2588305,10.3471622 92.7814998,11.2455 L91.7279998,12.642 C91.303331,11.6619951 90.7316701,10.6493386 90.0129998,9.604 L90.0129998,9.604 Z M99.2004998,4.8755 L99.2004998,9.2365 L93.0264998,9.2365 L93.0264998,4.8755 L99.2004998,4.8755 Z M97.6324998,6.272 L94.6189998,6.272 L94.6189998,7.8645 L97.6324998,7.8645 L97.6324998,6.272 Z M101.4545,4.41 L101.4545,0 L103.2185,0 L103.2185,1.4945 L107.6775,1.4945 L107.6775,2.9645 L103.2185,2.9645 L103.2185,4.41 L101.4545,4.41 Z M106.967,4.8755 L106.967,9.2365 L100.695,9.2365 L100.695,4.8755 L106.967,4.8755 Z M105.3745,6.272 L102.263,6.272 L102.263,7.8645 L105.3745,7.8645 L105.3745,6.272 Z M98.3429998,0 L98.3429998,4.41 L96.5789998,4.41 L96.5789998,2.9645 L91.9729998,2.9645 L91.9729998,1.4945 L96.5789998,1.4945 L96.5789998,0 L98.3429998,0 Z M107.4815,21.6825 L95.3784998,21.6825 L95.3784998,22.687 L93.6144998,22.687 L93.6144998,14.5775 C93.0591637,15.2145032 92.463003,15.8188305 91.8259998,16.3905 L90.9684998,14.9695 C92.7651755,13.3034917 94.1779947,11.4333437 95.2069998,9.359 L96.7994998,9.947 C96.5544986,10.3880022 96.309501,10.804498 96.0644998,11.1965 L100.499,11.1965 L100.009,9.751 L101.7975,9.4325 L102.2875,11.1965 L107.3835,11.1965 L107.3835,12.593 L101.9445,12.593 L101.9445,14.259 L106.722,14.259 L106.722,15.6555 L101.9445,15.6555 L101.9445,17.2235 L106.82,17.2235 L106.82,18.62 L101.9445,18.62 L101.9445,20.286 L107.4815,20.286 L107.4815,21.6825 Z M95.3784998,17.2235 L100.254,17.2235 L100.254,15.6555 L95.3784998,15.6555 L95.3784998,17.2235 Z M100.254,18.62 L95.3784998,18.62 L95.3784998,20.286 L100.254,20.286 L100.254,18.62 Z M95.3784998,14.259 L100.254,14.259 L100.254,12.593 L95.3784998,12.593 L95.3784998,14.259 Z" id="生而平權" sketch:type="MSShapeGroup"></path>
            <path d="M14.716,62.033 L1,62.033 L1,41.405 L14.284,41.405 L14.284,44.483 L4.267,44.483 L4.267,50.018 L13.204,50.018 L13.204,53.096 L4.267,53.096 L4.267,58.982 L14.716,58.982 L14.716,62.033 Z M32.915,63.464 L30.863,61.385 C30.2329969,61.7090016 29.5535036,61.9609991 28.8245,62.141 C28.0954964,62.3210009 27.335004,62.411 26.543,62.411 C24.2029883,62.411 22.2950074,61.7045071 20.819,60.2915 C19.3429926,58.8784929 18.605,56.9570121 18.605,54.527 L18.605,48.857 C18.605,46.5529885 19.3519925,44.6675073 20.846,43.2005 C22.3400075,41.7334927 24.2389885,41 26.543,41 C28.8650116,41 30.7729925,41.7334927 32.267,43.2005 C33.7610075,44.6675073 34.508,46.5529885 34.508,48.857 L34.508,54.527 C34.508,55.5530051 34.3730013,56.4934957 34.103,57.3485 C33.8329986,58.2035043 33.4550024,58.9459969 32.969,59.576 L34.886,61.493 L32.915,63.464 Z M26.516,59.387 C26.8940019,59.387 27.2449984,59.3600003 27.569,59.306 C27.8930016,59.2519997 28.2079985,59.1620006 28.514,59.036 L26.138,56.687 L28.082,54.716 L30.647,57.227 C30.845001,56.9029984 30.9934995,56.5205022 31.0925,56.0795 C31.1915005,55.6384978 31.241,55.1570026 31.241,54.635 L31.241,48.803 C31.241,47.398993 30.8180042,46.2605044 29.972,45.3875 C29.1259958,44.5144956 27.9830072,44.078 26.543,44.078 C25.138993,44.078 24.0095043,44.5144956 23.1545,45.3875 C22.2994957,46.2605044 21.872,47.398993 21.872,48.803 L21.872,54.635 C21.872,56.2730082 22.3309954,57.4744962 23.249,58.2395 C24.1670046,59.0045038 25.2559937,59.387 26.516,59.387 L26.516,59.387 Z M47.253,62.465 C44.858988,62.465 42.964507,61.8890058 41.5695,60.737 C40.174493,59.5849942 39.477,57.9290108 39.477,55.769 L39.477,41.405 L42.771,41.405 L42.771,55.337 C42.771,56.6330065 43.1624961,57.6274965 43.9455,58.3205 C44.7285039,59.0135035 45.8399928,59.36 47.28,59.36 C48.7560074,59.36 49.8539964,59.0135035 50.574,58.3205 C51.2940036,57.6274965 51.654,56.6330065 51.654,55.337 L51.654,41.405 L54.894,41.405 L54.894,55.769 C54.894,57.7130097 54.2730062,59.3149937 53.031,60.575 C51.7889938,61.8350063 49.8630131,62.465 47.253,62.465 L47.253,62.465 Z M67.342,45.563 L64.534,53.96 L70.258,53.96 L67.342,45.563 Z M61.753,62.033 L58.324,62.033 L65.776,41.405 L68.989,41.405 L76.657,62.033 L73.201,62.033 L71.311,56.984 L63.562,56.984 L61.753,62.033 Z M95.1,62.033 L81.357,62.033 L81.357,41.405 L84.624,41.405 L84.624,58.982 L95.1,58.982 L95.1,62.033 Z M103.256,62.033 L99.962,62.033 L99.962,41.405 L103.256,41.405 L103.256,62.033 Z M114.22,44.483 L108.091,44.483 L108.091,41.405 L123.697,41.405 L123.697,44.483 L117.514,44.483 L117.514,62.033 L114.22,62.033 L114.22,44.483 Z M142.356,41.405 L135.903,52.691 L135.903,62.033 L132.609,62.033 L132.609,52.691 L126.183,41.405 L129.801,41.405 L134.283,49.64 L138.738,41.405 L142.356,41.405 Z" id="EQUALITY" sketch:type="MSShapeGroup"></path>
        </g>
    </g>
</svg>