<?xml version="1.0" encoding="UTF-8" standalone="no"?>
<svg width="256px" height="72px" viewBox="0 0 256 72" version="1.1" xmlns="http://www.w3.org/2000/svg" xmlns:xlink="http://www.w3.org/1999/xlink" xmlns:sketch="http://www.bohemiancoding.com/sketch/ns">
    <!-- Generator: Sketch 3.3.2 (12043) - http://www.bohemiancoding.com/sketch -->
    <title>office-donate</title>
    <desc>Created with Sketch.</desc>
    <defs></defs>
    <g id="Page-1" stroke="none" stroke-width="1" fill="none" fill-rule="evenodd" sketch:type="MSPage">
        <g id="office-donate" sketch:type="MSLayerGroup" fill="#1A1918">
            <g id="Imported-Layers" transform="translate(3.000000, 6.000000)" sketch:type="MSShapeGroup">
                <path d="M0.665178571,22.8868657 L0.665178571,20.9346269 L8.29821429,13.5537313 C9.575,12.3035821 10.3651786,10.961194 10.3651786,9.46656716 C10.3651786,7.4238806 8.84464286,5.83791045 6.65535714,5.83791045 C4.61785714,5.83791045 2.91517857,7.27074627 2.91517857,9.52835821 L0.725892857,9.52835821 C0.725892857,6.2641791 3.25,3.88567164 6.65535714,3.88567164 C10.2133929,3.88567164 12.5553571,6.32597015 12.5553571,9.4361194 C12.5553571,11.6319403 11.36875,13.2492537 9.75714286,14.8343284 L3.55446429,20.9346269 L13.1026786,20.9346269 L13.1026786,22.8868657 L0.665178571,22.8868657" id="Fill-1"></path>
                <path d="M27.1473214,21.3608955 C26.1142857,22.4292537 24.6848214,23.0695522 22.8607143,23.0695522 C21.0357143,23.0695522 19.60625,22.4292537 18.5723214,21.3608955 C17.0526786,19.8062687 16.7482143,17.701791 16.7482143,15.3841791 C16.7482143,13.0656716 17.0526786,10.9307463 18.5723214,9.40567164 C19.60625,8.33910448 21.0357143,7.69791045 22.8607143,7.69791045 C24.6848214,7.69791045 26.1142857,8.33910448 27.1473214,9.40567164 C28.6678571,10.9307463 28.9723214,13.0656716 28.9723214,15.3841791 C28.9723214,17.701791 28.6678571,19.8062687 27.1473214,21.3608955 L27.1473214,21.3608955 Z M25.5973214,10.7480597 C24.8669643,10.0164179 23.9241071,9.64925373 22.8607143,9.64925373 C21.7955357,9.64925373 20.8839286,10.0164179 20.1535714,10.7480597 C19.0589286,11.8459701 18.9375,13.6755224 18.9375,15.3841791 C18.9375,17.0614925 19.0285714,18.8919403 20.1535714,20.0202985 C20.8839286,20.7519403 21.7955357,21.1173134 22.8607143,21.1173134 C23.9241071,21.1173134 24.8669643,20.7519403 25.5973214,20.0202985 C26.6919643,18.8919403 26.7830357,17.0614925 26.7830357,15.3841791 C26.7830357,13.6755224 26.6919643,11.8459701 25.5973214,10.7480597 L25.5973214,10.7480597 Z" id="Fill-2"></path>
                <path d="M36.5107143,22.8868657 L36.5107143,7.11850746 L32.4660714,10.6871642 L32.4660714,8.18597015 L36.5107143,4.67910448 L38.7,4.67910448 L38.7,22.8868657 L36.5107143,22.8868657" id="Fill-3"></path>
                <path d="M50.2830357,23.0695522 C46.3,23.0695522 43.80625,20.3856716 43.80625,16.3602985 C43.80625,14.5907463 44.2919643,12.821194 45.3875,10.9002985 L51.1651786,0.683283582 L53.4758929,0.683283582 L48.0026786,10.1077612 C48.8839286,9.64925373 49.6133929,9.52835821 50.6482143,9.52835821 C54.3276786,9.52835821 56.7294643,12.3035821 56.7294643,16.1776119 C56.7294643,20.141194 54.2357143,23.0695522 50.2830357,23.0695522 L50.2830357,23.0695522 Z M50.2526786,11.3579104 C47.6678571,11.3579104 45.9955357,13.3092537 45.9955357,16.2985075 C45.9955357,19.2573134 47.6678571,21.2095522 50.2526786,21.2095522 C52.8375,21.2095522 54.5401786,19.2573134 54.5401786,16.2985075 C54.5401786,13.6146269 53.05,11.3579104 50.2526786,11.3579104 L50.2526786,11.3579104 Z" id="Fill-4"></path>
                <path d="M69.8991071,14.1286567 C68.3625,15.4504478 66.4258929,16.4964179 64.0857143,17.2683582 L63.2892857,15.821194 C64.4946429,15.4056716 65.5928571,14.9453731 66.5830357,14.441194 C66.18125,13.921791 65.74375,13.3656716 65.2705357,12.7719403 L66.2607143,12.0143284 C66.8633929,12.7567164 67.3375,13.3656716 67.68125,13.8402985 C68.1258929,13.5725373 68.5428571,13.2832836 68.9303571,12.9716418 C68.4419643,12.3931343 67.8892857,11.7841791 67.2723214,11.1465672 L68.1339286,10.3450746 C68.8508929,11.1026866 69.4107143,11.7179104 69.8125,12.1925373 C70.6160714,11.3919403 71.2258929,10.5232836 71.6428571,9.58835821 L67.4875,9.58835821 C66.5116071,10.8197015 65.40625,11.8961194 64.1723214,12.8167164 L63.3758929,11.7026866 C65.3276786,10.3531343 66.8705357,8.60149254 68.0044643,6.44955224 L69.1455357,7.07283582 C68.8866071,7.50358209 68.6357143,7.91910448 68.3919643,8.31940299 L73.10625,8.31940299 L73.10625,9.58835821 C72.6767857,10.7901493 72.0089286,11.9032836 71.1044643,12.9277612 L76.8741071,12.9277612 C75.7258929,11.4877612 74.6571429,9.35014925 73.6660714,6.5158209 L74.8294643,6.11552239 C75.8910714,8.90507463 77.0392857,10.9531343 78.2741071,12.258806 C78.2875,12.2740299 78.3098214,12.2964179 78.3383929,12.3268657 C79.3428571,11.3767164 80.2401786,10.3898507 81.0294643,9.36537313 L76.7883929,9.36537313 L76.7883929,8.00686567 L82.7732143,8.00686567 L82.7732143,9.36537313 C82.2991071,10.2268657 81.1803571,11.5397015 79.4142857,13.3056716 C80.5339286,14.1814925 81.9767857,14.9829851 83.7419643,15.7101493 L82.8375,17.1797015 C80.3116071,16.0065672 78.4241071,14.7080597 77.1758929,13.2832836 L77.1330357,13.2385075 L77.1330357,14.3740299 L70.4803571,14.3740299 L70.4803571,13.5510448 C70.29375,13.7435821 70.1,13.9370149 69.8991071,14.1286567 L69.8991071,14.1286567 Z M70.6955357,6.76119403 L69.1455357,6.76119403 L69.1455357,5.31402985 L63.6767857,5.31402985 L63.6767857,3.88925373 L69.1455357,3.88925373 L69.1455357,2.57641791 L70.6955357,2.57641791 L70.6955357,3.88925373 L76.4651786,3.88925373 L76.4651786,2.57641791 L78.0151786,2.57641791 L78.0151786,3.88925373 L83.5267857,3.88925373 L83.5267857,5.31402985 L78.0151786,5.31402985 L78.0151786,6.76119403 L76.4651786,6.76119403 L76.4651786,5.31402985 L70.6955357,5.31402985 L70.6955357,6.76119403 L70.6955357,6.76119403 Z M63.7848214,21.3868657 C65.8660714,20.7483582 67.6169643,19.8134328 69.0375,18.581194 L69.9848214,19.6728358 C68.4205357,21.0671642 66.5616071,22.121194 64.4089286,22.8331343 L63.7848214,21.3868657 L63.7848214,21.3868657 Z M67.0357143,16.3110448 L80.3401786,16.3110448 L80.3401786,17.758209 L74.6571429,17.758209 L74.6571429,21.4316418 C74.6571429,22.5438806 74.1616071,23.1008955 73.1714286,23.1008955 L70.2428571,23.1008955 L69.8991071,21.7647761 L72.5044643,21.7647761 C72.9053571,21.7647761 73.10625,21.5570149 73.10625,21.1414925 L73.10625,17.758209 L67.0357143,17.758209 L67.0357143,16.3110448 L67.0357143,16.3110448 Z M76.9178571,19.7614925 L77.6705357,18.6035821 C79.7375,19.4641791 81.6107143,20.4223881 83.2901786,21.4755224 L82.3857143,22.7883582 C80.85,21.7047761 79.0267857,20.6964179 76.9178571,19.7614925 L76.9178571,19.7614925 Z" id="Fill-5"></path>
                <path d="M97.3044643,17.2235821 C95.9276786,20.3704478 92.7839286,22.3361194 87.875,23.1223881 L87.1,21.5426866 C91.4491071,20.8746269 94.2982143,19.3235821 95.6473214,16.8895522 L87.4446429,16.8895522 L87.4446429,15.2865672 L89.7910714,15.2865672 L89.7910714,9.7441791 L96.5303571,9.7441791 L96.5303571,7.71850746 L98.0803571,7.71850746 L98.0803571,9.7441791 L104.646429,9.7441791 L104.646429,15.2865672 L107.122321,15.2865672 L107.122321,16.8895522 L98.76875,16.8895522 C100.60625,18.9823881 103.447321,20.518209 107.294643,21.4979104 L106.390179,23.1008955 C102.25625,21.898209 99.2285714,19.9397015 97.3044643,17.2235821 L97.3044643,17.2235821 Z M93.7098214,4.57880597 L100.641964,4.57880597 L100.641964,2.57641791 L102.214286,2.57641791 L102.214286,4.57880597 L107.122321,4.57880597 L107.122321,6.18179104 L102.214286,6.18179104 L102.214286,8.31940299 L100.641964,8.31940299 L100.641964,6.18179104 L93.7098214,6.18179104 L93.7098214,8.31940299 L92.1598214,8.31940299 L92.1598214,6.18179104 L87.2723214,6.18179104 L87.2723214,4.57880597 L92.1598214,4.57880597 L92.1598214,2.57641791 L93.7098214,2.57641791 L93.7098214,4.57880597 L93.7098214,4.57880597 Z M96.25,15.2865672 C96.4223214,14.6346269 96.5151786,13.9370149 96.5303571,13.1937313 L96.5303571,11.28 L91.3633929,11.28 L91.3633929,15.2865672 L96.25,15.2865672 L96.25,15.2865672 Z M98.0803571,13.1937313 C98.0660714,13.9370149 98.0008929,14.6346269 97.8866071,15.2865672 L103.096429,15.2865672 L103.096429,11.28 L98.0803571,11.28 L98.0803571,13.1937313 L98.0803571,13.1937313 Z" id="Fill-6"></path>
                <path d="M121.352679,17.9802985 C119.027679,19.9092537 115.791071,21.5937313 111.64375,23.0337313 L110.716964,21.4755224 C114.865179,20.0659701 118.008036,18.5444776 120.147321,16.9119403 C119.989286,16.7489552 119.845536,16.6002985 119.716964,16.4668657 C117.534821,14.1071642 115.819643,10.9979104 114.571429,7.14 L111.384821,7.14 L111.384821,5.53701493 L120.147321,5.53701493 C120.003571,4.64686567 119.794643,3.7119403 119.522321,2.73223881 L121.051786,2.57641791 C121.324107,3.57044776 121.546429,4.55731343 121.71875,5.53701493 L130.545536,5.53701493 L130.545536,7.14 L127.100893,7.14 C126.153571,11.458209 124.632143,14.7080597 122.536607,16.8895522 C124.632143,18.5525373 127.43125,20.1322388 130.933036,21.6313433 L129.791964,23.1456716 C126.31875,21.5722388 123.505357,19.8501493 121.352679,17.9802985 L121.352679,17.9802985 Z M125.616071,7.14 L116.077679,7.14 C117.226786,10.5528358 118.819643,13.2985075 120.857143,15.3761194 C121.015179,15.5391045 121.173214,15.7020896 121.33125,15.8659701 C121.374107,15.8059701 121.416964,15.7549254 121.460714,15.7101493 C123.340179,13.7364179 124.725,10.878806 125.616071,7.14 L125.616071,7.14 Z" id="Fill-7"></path>
                <path d="M138.209821,17.7134328 C138.209821,19.9692537 137.198214,21.8167164 135.175,23.2567164 L134.270536,21.898209 C135.977679,20.8441791 136.832143,19.4498507 136.832143,17.7134328 L136.832143,16.9343284 L135.346429,16.9343284 L135.346429,11.2352239 L142.967857,11.2352239 L142.967857,16.9343284 L141.332143,16.9343284 L141.332143,19.9397015 L143.89375,18.5373134 L144.066071,20.0507463 C142.185714,21.0743284 140.84375,21.8686567 140.040179,22.4328358 L139.416071,20.9865672 C139.745536,20.7779104 139.917857,20.4438806 139.932143,19.9835821 L139.932143,16.9343284 L138.209821,16.9343284 L138.209821,17.7134328 L138.209821,17.7134328 Z M143.721429,9.63313433 L134.55,9.63313433 L134.55,8.27462687 L136.789286,8.27462687 L136.229464,5.71522388 L134.980357,5.71522388 L134.980357,4.35671642 L138.575893,4.35671642 C138.490179,3.77820896 138.346429,3.17731343 138.145536,2.55402985 L139.695536,2.39820896 C139.853571,3.05104478 139.982143,3.7038806 140.083036,4.35671642 L143.3125,4.35671642 L143.3125,5.71522388 L142.192857,5.71522388 L141.503571,8.27462687 L143.721429,8.27462687 L143.721429,9.63313433 L143.721429,9.63313433 Z M136.832143,15.5767164 L141.503571,15.5767164 L141.503571,12.5713433 L136.832143,12.5713433 L136.832143,15.5767164 Z M140.750893,5.71522388 L137.671429,5.71522388 L138.166964,8.27462687 L140.104464,8.27462687 L140.750893,5.71522388 L140.750893,5.71522388 Z M153.3875,11.2352239 L153.3875,16.9343284 L151.342857,16.9343284 L151.342857,21.1862687 C151.342857,21.3940299 151.435714,21.4979104 151.622321,21.4979104 L153.065179,21.4979104 C153.251786,21.4979104 153.344643,21.3940299 153.344643,21.1862687 L153.344643,19.0934328 L154.658036,19.4498507 L154.658036,21.5641791 C154.658036,22.5286567 154.183929,23.0113433 153.2375,23.0113433 L151.364286,23.0113433 C150.416964,23.0113433 149.94375,22.5286567 149.94375,21.5641791 L149.94375,16.9343284 L148.220536,16.9343284 L148.220536,17.5352239 C148.220536,20.1474627 146.958036,22.0620896 144.432143,23.278209 L143.463393,22.0540299 C145.716071,21.0608955 146.842857,19.5537313 146.842857,17.5352239 L146.842857,16.9343284 L145.271429,16.9343284 L145.271429,11.2352239 L153.3875,11.2352239 L153.3875,11.2352239 Z M154.572321,9.63313433 L144.560714,9.63313433 L144.560714,8.27462687 L146.714286,8.27462687 L146.21875,5.71522388 L144.905357,5.71522388 L144.905357,4.35671642 L148.802679,4.35671642 C148.6875,3.77820896 148.529464,3.18537313 148.328571,2.57641791 L149.857143,2.37492537 C150.058036,3.04298507 150.216071,3.7038806 150.33125,4.35671642 L154.141964,4.35671642 L154.141964,5.71522388 L152.784821,5.71522388 L152.139286,8.27462687 L154.572321,8.27462687 L154.572321,9.63313433 L154.572321,9.63313433 Z M146.757143,15.5767164 L151.924107,15.5767164 L151.924107,12.5713433 L146.757143,12.5713433 L146.757143,15.5767164 Z M151.364286,5.71522388 L147.661607,5.71522388 L148.091964,8.27462687 L150.740179,8.27462687 L151.364286,5.71522388 L151.364286,5.71522388 Z" id="Fill-8"></path>
                <path d="M162.064286,10.3674627 L162.064286,18.9385075 C162.164286,18.9823881 162.272321,19.0343284 162.3875,19.0934328 C162.802679,19.3602985 163.369643,19.7274627 164.0875,20.1958209 C164.805357,20.6623881 166.025,20.8970149 167.747321,20.8970149 L178.446429,20.8970149 L178.016071,22.4104478 L167.747321,22.4104478 C165.953571,22.4104478 164.661607,22.1579104 163.872321,21.6537313 C163.083036,21.1486567 162.5375,20.7850746 162.236607,20.5629851 C161.949107,20.3552239 161.655357,20.2441791 161.353571,20.2289552 C160.966071,20.3328358 160.241071,21.1486567 159.179464,22.6773134 L157.930357,21.4531343 C158.461607,20.9041791 159.05,20.3032836 159.695536,19.6495522 C159.96875,19.3531343 160.241071,19.1238806 160.513393,18.96 L160.513393,11.881791 L158.404464,11.881791 L158.404464,10.3674627 L162.064286,10.3674627 L162.064286,10.3674627 Z M161.396429,7.33970149 C160.721429,6.24179104 159.882143,5.02477612 158.877679,3.68865672 L160.104464,2.84328358 C161.382143,4.56537313 162.236607,5.78955224 162.666964,6.5158209 L161.396429,7.33970149 L161.396429,7.33970149 Z M177.909821,16.6665672 L163.376786,16.6665672 L163.376786,15.3313433 L167.016071,15.3313433 L167.016071,13.4614925 L164.13125,13.4614925 L164.13125,12.1038806 L167.016071,12.1038806 L167.016071,10.4561194 C165.852679,10.6343284 164.941071,10.8197015 164.28125,11.0131343 L163.678571,9.52119403 C164.023214,9.31343284 164.202679,8.97940299 164.216964,8.52 L164.216964,3.4441791 L169.879464,3.4441791 L169.879464,7.40686567 L165.594643,7.40686567 L165.594643,9.25432836 L170.008036,8.76447761 L170.180357,10.0110448 C169.577679,10.0701493 169.017857,10.1373134 168.500893,10.2107463 L168.500893,12.1038806 L172.65625,12.1038806 L172.65625,10.278806 L172.441071,10.278806 C171.666071,10.278806 171.278571,9.87044776 171.278571,9.05373134 L171.278571,3.4441791 L177.027679,3.4441791 L177.027679,7.40686567 L172.65625,7.40686567 L172.65625,8.71970149 C172.65625,8.91313433 172.75625,9.00985075 172.957143,9.00985075 L177.241964,9.00985075 L177.241964,10.278806 L174.141964,10.278806 L174.141964,12.1038806 L177.15625,12.1038806 L177.15625,13.4614925 L174.141964,13.4614925 L174.141964,15.3313433 L177.909821,15.3313433 L177.909821,16.6665672 L177.909821,16.6665672 Z M164.303571,19.9397015 L163.571429,18.6035821 C165.264286,18.1441791 166.872321,17.5880597 168.39375,16.9343284 L169.254464,17.958806 C167.675893,18.7298507 166.025,19.3907463 164.303571,19.9397015 L164.303571,19.9397015 Z M165.594643,6.13791045 L168.500893,6.13791045 L168.500893,4.71313433 L165.594643,4.71313433 L165.594643,6.13791045 Z M168.500893,15.3313433 L172.65625,15.3313433 L172.65625,13.4614925 L168.500893,13.4614925 L168.500893,15.3313433 Z M171.816964,18.2256716 L172.548214,17.000597 C174.471429,17.5352239 176.172321,18.1513433 177.651786,18.8489552 L176.832143,20.2074627 C175.6125,19.5385075 173.941071,18.8785075 171.816964,18.2256716 L171.816964,18.2256716 Z M172.65625,6.13791045 L175.649107,6.13791045 L175.649107,4.71313433 L172.65625,4.71313433 L172.65625,6.13791045 Z" id="Fill-9"></path>
                <path d="M185.767857,17.6247761 C185.4375,19.8214925 184.633929,21.6976119 183.35625,23.2567164 L182.150893,22.0764179 C183.2125,20.8602985 183.923214,19.3755224 184.282143,17.6247761 L181.828571,17.6247761 L181.828571,16.1104478 L184.433036,16.1104478 C184.461607,15.7997015 184.475893,15.4952239 184.475893,15.1979104 L184.475893,12.7486567 L181.828571,12.7486567 L181.828571,11.2352239 L183.227679,11.2352239 L182.753571,6.3161194 L181.913393,6.3161194 L181.913393,4.80179104 L184.347321,4.80179104 C184.260714,4.13373134 184.116964,3.40746269 183.916071,2.62029851 L185.444643,2.53164179 C185.645536,3.28835821 185.796429,4.04597015 185.896429,4.80179104 L188.480357,4.80179104 L188.480357,6.3161194 L187.813393,6.3161194 L187.124107,11.2352239 L188.738393,11.2352239 L188.738393,12.7486567 L185.960714,12.7486567 L185.960714,15.1979104 C185.960714,15.4952239 185.947321,15.7997015 185.917857,16.1104478 L188.39375,16.1104478 L188.39375,17.6247761 L185.767857,17.6247761 L185.767857,17.6247761 Z M184.088393,6.3161194 L184.51875,11.2352239 L185.832143,11.2352239 L186.477679,6.3161194 L184.088393,6.3161194 L184.088393,6.3161194 Z M191.386607,10.7453731 C191.386607,15.8659701 190.332143,20.0435821 188.222321,23.278209 L187.016071,22.2322388 C188.997321,19.338806 189.9875,15.5095522 189.9875,10.7453731 L189.9875,7.9638806 L188.566071,7.9638806 L188.566071,6.44955224 L189.9875,6.44955224 L189.9875,2.57641791 L191.386607,2.57641791 L191.386607,6.44955224 L194.573214,6.44955224 L194.573214,18.4925373 C194.573214,20.5110448 194.386607,21.7755224 194.013393,22.2886567 C193.640179,22.8 192.99375,23.0561194 192.075893,23.0561194 L190.676786,23.0561194 L190.332143,21.4531343 L191.816964,21.4531343 C192.376786,21.4531343 192.746429,21.2677612 192.925893,20.8970149 C193.105357,20.5262687 193.195536,19.3907463 193.195536,17.4904478 L193.195536,7.9638806 L191.386607,7.9638806 L191.386607,10.7453731 L191.386607,10.7453731 Z M197.932143,23.1904478 L197.932143,17.8916418 L195.283929,17.8916418 L195.283929,16.3558209 L197.932143,16.3558209 L197.932143,12.7486567 L195.046429,12.7486567 L195.046429,11.2352239 L196.661607,11.2352239 L196.079464,6.3161194 L195.046429,6.3161194 L195.046429,4.80179104 L197.866071,4.80179104 C197.794643,4.10507463 197.658929,3.37791045 197.457143,2.62029851 L198.985714,2.50925373 C199.200893,3.31074627 199.358929,4.07552239 199.460714,4.80179104 L202.022321,4.80179104 L202.022321,6.3161194 L201.182143,6.3161194 L200.558036,11.2352239 L202.108036,11.2352239 L202.108036,12.7486567 L199.416964,12.7486567 L199.416964,16.3558209 L201.935714,16.3558209 L201.935714,17.8916418 L199.416964,17.8916418 L199.416964,23.1904478 L197.932143,23.1904478 L197.932143,23.1904478 Z M197.974107,11.2352239 L199.266071,11.2352239 L199.847321,6.3161194 L197.414286,6.3161194 L197.974107,11.2352239 L197.974107,11.2352239 Z" id="Fill-10"></path>
                <path d="M205.530357,13.3943284 C207.870536,10.7677612 209.520536,8.02298507 210.482143,5.15820896 L211.816964,5.60328358 C210.798214,8.70537313 209.126786,11.6068657 206.800893,14.3077612 L205.530357,13.3943284 L205.530357,13.3943284 Z M209.126786,19.7176119 C210.977679,16.8976119 212.714286,13.6397015 214.336607,9.94477612 L215.8,10.4122388 C214.307143,13.8259701 212.599107,17.0677612 210.676786,20.139403 C213.733929,19.9325373 217.149107,19.7176119 220.924107,19.4946269 C220.091964,17.8916418 219.115179,16.2367164 217.995536,14.5307463 L219.416964,13.9065672 C221.354464,16.8152239 222.9625,19.68 224.239286,22.4991045 L222.602679,23.1671642 C222.316071,22.4552239 222.007143,21.7576119 221.677679,21.0743284 C216.740179,21.3125373 212.219643,21.6537313 208.114286,22.098806 L207.877679,20.3847761 C207.90625,20.3704478 207.949107,20.3623881 208.007143,20.3623881 L208.09375,20.3623881 C208.551786,20.2737313 208.896429,20.0579104 209.126786,19.7176119 L209.126786,19.7176119 Z M219.115179,4.84656716 L212.657143,4.84656716 L212.657143,3.31074627 L220.149107,3.31074627 C220.924107,5.98208955 221.680357,7.92626866 222.419643,9.14328358 C223.159821,10.359403 224.311607,11.6435821 225.875893,12.9940299 L224.734821,14.3077612 C223.198214,12.8973134 222.022321,11.5029851 221.203571,10.1229851 C220.515179,8.99462687 219.81875,7.2358209 219.115179,4.84656716 L219.115179,4.84656716 Z" id="Fill-11"></path>
                <path d="M232.657143,8.27462687 L246.113393,8.27462687 L246.113393,9.78895522 L238.104464,9.78895522 C236.883929,10.8420896 235.65,11.821791 234.400893,12.7271642 C237.271429,12.6080597 240.464286,12.5122388 243.98125,12.4379104 C243.45,11.9328358 242.869643,11.4214925 242.2375,10.9020896 L243.4,10.0558209 C245.19375,11.5110448 246.722321,12.9492537 247.985714,14.3740299 L246.715179,15.3098507 C246.328571,14.8343284 245.897321,14.3453731 245.424107,13.8402985 C243.572321,13.8555224 241.792857,13.9002985 240.084821,13.9728358 L240.084821,16.6665672 L247.942857,16.6665672 L247.942857,18.1146269 L240.084821,18.1146269 L240.084821,20.6740299 L249.127679,20.6740299 L249.127679,22.2770149 L229.621429,22.2770149 L229.621429,20.6740299 L238.534821,20.6740299 L238.534821,18.1146269 L230.805357,18.1146269 L230.805357,16.6665672 L238.534821,16.6665672 L238.534821,14.0408955 C236.209821,14.1286567 234.00625,14.2558209 231.925,14.418806 L231.666964,12.860597 C232.369643,12.6680597 233.295536,12.1038806 234.44375,11.1689552 C235.003571,10.6791045 235.520536,10.218806 235.994643,9.78895522 L232.657143,9.78895522 L232.657143,8.27462687 L232.657143,8.27462687 Z M246.952679,6.3161194 L231.688393,6.3161194 L231.688393,9.45492537 L230.116964,9.45492537 L230.116964,4.80179104 L238.55625,4.80179104 C238.441071,4.13373134 238.283036,3.4441791 238.082143,2.73223881 L239.633036,2.57641791 C239.833036,3.31791045 239.999107,4.06029851 240.127679,4.80179104 L248.502679,4.80179104 L248.502679,9.45492537 L246.952679,9.45492537 L246.952679,6.3161194 L246.952679,6.3161194 Z" id="Fill-12"></path>
                <path d="M157.786607,53.2164179 C159.250893,49.9370149 160.35625,46.5223881 161.102679,42.9752239 L163.557143,43.5098507 C162.896429,47.1465672 161.863393,50.6337313 160.45625,53.9740299 L157.786607,53.2164179 L157.786607,53.2164179 Z M169.563393,38.0337313 L169.563393,56.6220896 C169.563393,58.1516418 168.83125,58.9155224 167.367857,58.9155224 L163.233929,58.9155224 L162.78125,55.998806 L165.860714,55.998806 C166.449107,55.998806 166.742857,55.6952239 166.742857,55.0871642 L166.742857,38.0337313 L169.563393,38.0337313 L169.563393,38.0337313 Z M175.7,53.7286567 C174.795536,50.1367164 173.633036,46.7525373 172.211607,43.5761194 L174.494643,42.7307463 C175.94375,45.8623881 177.2,49.2752239 178.261607,52.9710448 L175.7,53.7286567 L175.7,53.7286567 Z" id="Fill-13"></path>
                <path d="M190.469643,52.1704478 L190.469643,58.6486567 L188.166071,58.6486567 L188.166071,58.0029851 L185.173214,58.0029851 L185.173214,58.9155224 L182.869643,58.9155224 L182.869643,52.0146269 C182.625,52.1176119 182.395536,52.2152239 182.180357,52.3029851 L181.297321,50.1223881 C182.675893,49.6620896 183.888393,49.1274627 184.936607,48.519403 C184.448214,48.2373134 183.967857,47.9776119 183.49375,47.7402985 C183.221429,48.0510448 182.926786,48.3483582 182.610714,48.6304478 L181.383929,46.760597 C182.761607,45.7665672 183.824107,44.2746269 184.570536,42.2856716 L186.701786,42.5086567 C186.572321,42.8050746 186.44375,43.1238806 186.314286,43.4650746 L190.641964,43.4650746 L190.641964,45.5131343 C190.240179,46.5080597 189.651786,47.420597 188.876786,48.2516418 C189.938393,48.8453731 190.972321,49.4758209 191.976786,50.1438806 L190.469643,52.1704478 L190.469643,52.1704478 Z M189.264286,41.7295522 L183.838393,41.7295522 L183.838393,43.3540299 L181.684821,43.3540299 L181.684821,39.6134328 L185.366964,39.6134328 C185.28125,39.1244776 185.166071,38.6274627 185.022321,38.1223881 L187.498214,37.921791 C187.627679,38.4868657 187.742857,39.0501493 187.842857,39.6134328 L191.395536,39.6134328 L191.395536,42.9089552 L189.264286,42.9089552 L189.264286,41.7295522 L189.264286,41.7295522 Z M184.096429,51.5238806 L189.630357,51.5238806 C188.841071,50.9310448 188.000893,50.358806 187.111607,49.8098507 C186.235714,50.418806 185.230357,50.9910448 184.096429,51.5238806 L184.096429,51.5238806 Z M188.208929,45.5131343 L185.2375,45.5131343 C185.09375,45.721791 184.958036,45.9367164 184.828571,46.158806 C185.503571,46.4561194 186.163393,46.7820896 186.809821,47.139403 C187.354464,46.6343284 187.821429,46.0925373 188.208929,45.5131343 L188.208929,45.5131343 Z M185.173214,55.8662687 L188.166071,55.8662687 L188.166071,53.6614925 L185.173214,53.6614925 L185.173214,55.8662687 Z M191.825893,38.6122388 L201.751786,38.6122388 L201.751786,40.9943284 L197.596429,40.9943284 L197.38125,42.4414925 L201.083929,42.4414925 L201.083929,54.819403 L198.500893,54.819403 C199.80625,55.6065672 200.983929,56.4376119 202.03125,57.3125373 L200.416964,59.1161194 C199.441071,58.1955224 198.263393,57.3044776 196.885714,56.4438806 L198.241964,54.819403 L194.409821,54.819403 L196.196429,56.0659701 C195.120536,57.0752239 193.821429,58.0701493 192.3,59.0498507 L190.641964,57.3797015 C191.947321,56.5925373 193.153571,55.74 194.258929,54.819403 L192.191964,54.819403 L192.191964,42.4414925 L194.861607,42.4414925 L195.099107,40.9943284 L191.825893,40.9943284 L191.825893,38.6122388 L191.825893,38.6122388 Z M194.516964,45.9143284 L198.758036,45.9143284 L198.758036,44.6453731 L194.516964,44.6453731 L194.516964,45.9143284 Z M194.516964,49.2985075 L198.758036,49.2985075 L198.758036,47.9623881 L194.516964,47.9623881 L194.516964,49.2985075 Z M194.516964,52.6155224 L198.758036,52.6155224 L198.758036,51.3465672 L194.516964,51.3465672 L194.516964,52.6155224 Z" id="Fill-14"></path>
                <path d="M214.217857,49.4758209 L225.176786,49.4758209 L225.176786,51.3465672 L221.150893,51.3465672 C222.241964,52.1032836 223.784821,52.8304478 225.780357,53.5280597 L224.552679,55.7991045 C223.533036,55.3235821 222.636607,54.8489552 221.861607,54.3743284 L221.861607,56.2441791 C221.861607,57.9653731 221.028571,58.8268657 219.363393,58.8268657 L215.897321,58.8268657 L215.445536,56.600597 L218.438393,56.600597 C219.1125,56.600597 219.45,56.2441791 219.45,55.5322388 L219.45,55.0423881 L214.799107,55.0423881 C214.383036,55.7838806 213.924107,56.3776119 213.421429,56.8226866 C212.373214,57.7576119 210.672321,58.56 208.31875,59.2271642 L207.35,56.8674627 C209.273214,56.5119403 210.64375,55.998806 211.461607,55.3316418 C211.5625,55.2429851 211.6625,55.1462687 211.763393,55.0423881 L209.201786,55.0423881 L209.201786,54.3510448 C208.225,54.9304478 207.177679,55.4202985 206.058036,55.8214925 L204.895536,53.5728358 C206.660714,53.0086567 208.182143,52.2662687 209.459821,51.3465672 L205.4125,51.3465672 L205.4125,49.4758209 L211.483929,49.4758209 C211.699107,49.1946269 211.907143,48.9197015 212.108036,48.6528358 L207.392857,48.6528358 L207.392857,42.2632836 L223.239286,42.2632836 L223.239286,48.6528358 L214.734821,48.6528358 C214.5625,48.9197015 214.390179,49.1946269 214.217857,49.4758209 L214.217857,49.4758209 Z M205.240179,39.1244776 L210.492857,39.1244776 L210.492857,38.0337313 L212.991071,38.0337313 L212.991071,39.1244776 L217.813393,39.1244776 L217.813393,38.0337313 L220.290179,38.0337313 L220.290179,39.1244776 L225.349107,39.1244776 L225.349107,41.1725373 L220.290179,41.1725373 L220.290179,41.9516418 L217.813393,41.9516418 L217.813393,41.1725373 L212.991071,41.1725373 L212.991071,41.9516418 L210.492857,41.9516418 L210.492857,41.1725373 L205.240179,41.1725373 L205.240179,39.1244776 L205.240179,39.1244776 Z M209.86875,44.778806 L220.763393,44.778806 L220.763393,43.9549254 L209.86875,43.9549254 L209.86875,44.778806 Z M209.86875,46.961194 L220.763393,46.961194 L220.763393,46.1373134 L209.86875,46.1373134 L209.86875,46.961194 Z M213.485714,52.1256716 L215.875893,52.1256716 C215.790179,52.4820896 215.696429,52.8008955 215.596429,53.0820896 L219.924107,53.0820896 C219.177679,52.5044776 218.588393,51.9250746 218.158036,51.3465672 L212.840179,51.3465672 C212.280357,51.9698507 211.669643,52.5483582 211.009821,53.0820896 L213.098214,53.0820896 C213.227679,52.7856716 213.357143,52.4668657 213.485714,52.1256716 L213.485714,52.1256716 Z" id="Fill-15"></path>
                <path d="M228.836607,49.9441791 L239.601786,49.9441791 L239.601786,52.0808955 L235.6625,52.0808955 L235.6625,56.9337313 C235.6625,58.2555224 235.073214,58.9155224 233.896429,58.9155224 L231.420536,58.9155224 L230.990179,56.4438806 L230.602679,57.5131343 L228.578571,56.801194 L230.107143,52.6602985 L232.109821,53.5056716 L231.011607,56.3561194 L232.433036,56.3561194 C232.934821,56.3561194 233.186607,56.0964179 233.186607,55.5761194 L233.186607,52.0808955 L228.836607,52.0808955 L228.836607,49.9441791 L228.836607,49.9441791 Z M238.977679,45.2686567 L229.354464,45.2686567 L229.354464,43.220597 L233.1,43.220597 L233.1,41.7295522 L228.923214,41.7295522 L228.923214,39.6134328 L233.1,39.6134328 L233.1,38.0337313 L235.575893,38.0337313 L235.575893,39.6134328 L239.688393,39.6134328 L239.688393,41.7295522 L235.575893,41.7295522 L235.575893,43.220597 L239.021429,43.220597 L239.021429,45.1791045 C240.083036,42.9832836 240.829464,40.5797015 241.259821,37.9665672 L243.671429,38.0785075 C243.528571,38.9686567 243.35625,39.8364179 243.154464,40.6826866 L248.990179,40.6826866 L248.990179,43.2653731 L247.870536,47.7170149 L245.630357,47.139403 L246.642857,43.2653731 L242.423214,43.2653731 C241.934821,44.6597015 241.339286,46.040597 240.635714,47.4062687 L238.741071,45.7808955 C238.8125,45.6026866 238.891964,45.4316418 238.977679,45.2686567 L238.977679,45.2686567 Z M229.676786,46.56 L238.676786,46.56 L238.676786,48.6967164 L229.676786,48.6967164 L229.676786,46.56 Z M236.028571,53.6614925 L237.685714,52.3262687 C238.389286,53.1868657 238.984821,54.0035821 239.473214,54.7746269 L237.557143,56.2889552 C237.241071,55.561791 236.73125,54.6850746 236.028571,53.6614925 L236.028571,53.6614925 Z M237.901786,57.0008955 C240.858036,54.6850746 242.336607,51.1459701 242.336607,46.381791 L242.336607,44.8235821 L244.833929,44.8235821 L244.833929,46.381791 C244.833929,47.0650746 244.798214,47.7331343 244.726786,48.3850746 C245.702679,51.9770149 247.252679,54.7379104 249.377679,56.6668657 L247.805357,59.0937313 C246.154464,57.3277612 244.841071,55.2125373 243.865179,52.7489552 C242.975,55.361194 241.504464,57.4907463 239.451786,59.1385075 L237.901786,57.0008955 L237.901786,57.0008955 Z" id="Fill-16"></path>
            </g>
        </g>
    </g>
</svg>